<?xml version="1.0" standalone="no"?>
<!DOCTYPE svg PUBLIC "-//W3C//DTD SVG 20010904//EN"
 "http://www.w3.org/TR/2001/REC-SVG-20010904/DTD/svg10.dtd">
<svg version="1.0" xmlns="http://www.w3.org/2000/svg"
 width="390.000000pt" height="390.000000pt" viewBox="0 0 390.000000 390.000000"
 preserveAspectRatio="xMidYMid meet">
<metadata>
Created by potrace 1.11, written by Peter Selinger 2001-2013
</metadata>
<g transform="translate(0.000000,390.000000) scale(0.100000,-0.100000)"
fill="#000000" stroke="none">
<path d="M280 2270 l0 -800 1680 0 1680 0 0 800 0 800 -1680 0 -1680 0 0 -800z
m1160 525 c36 -10 69 -21 74 -26 11 -10 -25 -189 -39 -189 -5 0 -39 9 -75 21
-35 11 -106 23 -156 26 -287 19 -435 -113 -484 -431 -22 -143 25 -236 140
-270 92 -27 276 -18 393 20 27 9 51 14 53 11 9 -8 -28 -176 -40 -186 -21 -18
-172 -43 -286 -48 -233 -10 -385 63 -456 220 -85 189 -6 523 167 699 78 80
195 142 311 164 100 18 312 13 398 -11z m996 2 c2 -7 44 -248 93 -536 64 -381
85 -524 77 -527 -7 -3 -57 -3 -112 -2 l-99 3 -24 128 -25 127 -200 -2 -201 -3
-65 -111 c-36 -61 -71 -118 -79 -127 -11 -14 -34 -17 -127 -17 -63 0 -114 3
-114 7 0 4 142 247 317 540 l316 533 119 0 c88 0 120 -3 124 -13z m954 5 c0
-12 -219 -1045 -225 -1059 -5 -14 -210 -19 -218 -5 -3 5 190 939 218 1050 5
21 10 22 115 22 61 0 110 -4 110 -8z"/>
<path d="M2154 2388 c-65 -110 -120 -205 -122 -209 -2 -5 69 -9 158 -9 l162 0
-5 23 c-3 12 -20 105 -37 207 -17 101 -32 186 -34 187 -1 1 -56 -88 -122 -199z"/>
<path d="M606 1212 c-5 -9 -76 -333 -76 -348 0 -3 17 -4 37 -2 l37 3 18 85
c31 147 28 144 53 55 19 -70 25 -80 46 -83 20 -2 33 10 78 78 30 44 56 79 57
77 2 -1 -8 -51 -20 -110 l-23 -107 38 0 c22 0 39 2 39 4 0 2 16 79 35 170 19
92 35 171 35 177 0 6 -16 9 -37 7 -35 -3 -42 -9 -108 -105 -38 -56 -73 -102
-76 -103 -3 0 -19 46 -35 103 -29 100 -30 102 -61 105 -17 2 -34 -1 -37 -6z"/>
<path d="M1497 1213 c-4 -7 -77 -338 -77 -349 0 -2 59 -4 130 -4 l130 0 0 30
0 30 -86 0 -86 0 7 37 c4 21 9 41 11 45 3 5 40 8 83 8 76 0 79 1 83 25 3 13 3
27 0 30 -3 3 -39 5 -80 5 -72 0 -74 1 -68 23 3 12 6 30 6 40 0 15 11 17 90 17
88 0 91 1 100 26 6 14 8 30 4 35 -6 11 -241 12 -247 2z"/>
<path d="M2270 1216 c0 -2 -16 -77 -35 -167 -19 -90 -35 -170 -35 -176 0 -8
14 -13 34 -13 39 0 36 -5 61 115 9 44 19 89 22 100 4 14 21 -11 64 -98 57
-113 60 -117 92 -117 l32 0 35 168 c19 92 35 172 35 177 0 6 -16 10 -35 10
l-35 0 -26 -120 -26 -120 -62 123 c-58 115 -63 122 -91 122 -17 0 -30 -2 -30
-4z"/>
<path d="M3205 1208 c-85 -31 -146 -123 -147 -221 -1 -68 20 -101 78 -123 49
-19 133 -15 181 8 23 11 30 24 45 88 25 108 29 101 -54 98 -67 -3 -73 -5 -76
-25 -3 -21 1 -23 37 -23 40 0 41 -1 35 -27 -14 -66 -11 -63 -79 -63 -58 0 -66
2 -82 26 -14 23 -15 33 -5 83 9 43 20 63 48 90 35 33 37 33 115 29 l78 -3 7
28 c3 16 3 31 -1 35 -11 12 -149 12 -180 0z"/>
</g>
</svg>
